<?xml version="1.0" encoding="UTF-8"?>
<svg id="Layer_1" data-name="Layer 1" xmlns="http://www.w3.org/2000/svg" viewBox="0 0 700 700">
  <defs>
    <style>
      .cls-1 {
        fill: #f3b502;
      }

      .cls-2 {
        fill: #e8644b;
      }

      .cls-3 {
        fill: #026c52;
      }
    </style>
  </defs>
  <path class="cls-3" d="m336.1,602.7c-87.7,0-143.2-18.3-165-54.3-3.7-6.1-6.1-48-9.4-105.9-3.3-58.2-3.4-80.3-.7-107.3,4.6-45.4,8.7-68.7,26.2-86.9,5.6-5.8,17.8-18.5,95.6-21.7,9.7-.4,16.2,9.8,11.8,18.4-12.4,24.2-29,61.4-43.8,111-8.9,29.9-25.7,103.2,10.2,139.9,18.1,18.6,49.2,27.6,95.1,27.6s100.4-9.5,143.4-17.1c4.9-.9,9.5-1.7,13.9-2.6,3.4-.6,6.6-1.2,9.7-1.8,8.1-1.5,15.4,5.2,14.8,13.4-1.9,23.9-7.7,39.9-18.5,51.6-27,29.4-68.2,31.3-136.4,34.4-12.2.6-28.8,1.3-46.9,1.3Z"/>
  <path class="cls-1" d="m358.4,507c-34.9-1.8-52.3-2.6-65-12.5-45.7-35.4-27.2-139.8-2.9-145.5,7.8-1.8,10.6,7.8,45.8,31.7,41.2,27.9,53,25.2,58.1,22.4,3.9-2.2,7.8-6.6,8.1-11.4.2-3.5-1.4-10.5-33.1-28.4-11.4-6.4-17.6-9.2-31.7-16.1-25.7-12.7-38.5-19-41.4-23-14.9-20.5-2.3-66.6,27.3-87.1,16.7-11.6,35.9-10.8,73.5-8.8,52,2.8,99.6,5.4,115,35.1,5.4,10.5,5.8,22.4,6.7,46.2.6,18,1.1,33.1-5.2,35.8-6.5,2.7-14.7-9.9-43-35.2-31.2-28-40.4-30-46.5-27.7-5.4,2-9.5,7.8-10,13.5-1.1,12.7,16.6,22.7,35.5,35.2,37.9,25,57.4,37.9,70.6,56.9,16.8,24.4,26.1,63.3,9.8,85-4.6,6.2-11,10.5-53.4,19.4-52.5,10.9-79.5,16.4-118.2,14.5Z"/>
  <path class="cls-2" d="m174.3,224.3c9.2,17.4,79.9-28,185.4-24.5,95.6,3.1,158.7,44.4,168,28.1,6.9-12.1-23.9-41.5-43.4-60.3-42.2-40.5-77.3-74.1-127.7-75.1-47.2-.8-81.6,27.5-125.6,63.9-17.5,14.4-64.5,53.2-56.7,67.9Z"/>
</svg>